<svg xmlns="http://www.w3.org/2000/svg" fill="none" viewBox="0 0 256 256"><g clip-path="url(#a)"><path fill="#C4C4C4" fill-opacity=".5" fill-rule="evenodd" d="M11.333 140.878c3.8 18.28 19.09 33.571 49.673 64.154 30.583 30.582 45.874 45.873 64.155 49.673a62.523 62.523 0 0 0 25.444 0c12.819-2.664 24.169-10.98 40.353-26.258a29.399 29.399 0 0 1-4.814.393c-16.335 0-29.481-13.145-55.772-39.436l-5.254-5.254c-26.29-26.291-39.436-39.437-39.436-55.772s13.145-29.48 39.436-55.771l5.254-5.254c26.291-26.291 39.437-39.437 55.772-39.437 1.83 0 3.62.165 5.392.495-16.493-15.626-27.959-24.109-40.931-26.805a62.515 62.515 0 0 0-25.444 0c-18.281 3.8-33.572 19.09-64.155 49.673-30.582 30.583-45.873 45.874-49.673 64.154a62.52 62.52 0 0 0 0 25.445Z" clip-rule="evenodd"/><path fill="url(#b)" fill-rule="evenodd" d="M11.333 140.878c3.8 18.28 19.09 33.571 49.673 64.154 30.583 30.582 45.874 45.873 64.155 49.673a62.523 62.523 0 0 0 25.444 0c12.819-2.664 24.169-10.98 40.353-26.258a29.399 29.399 0 0 1-4.814.393c-16.335 0-29.481-13.145-55.772-39.436l-5.254-5.254c-26.29-26.291-39.436-39.437-39.436-55.772s13.145-29.48 39.436-55.771l5.254-5.254c26.291-26.291 39.437-39.437 55.772-39.437 1.83 0 3.62.165 5.392.495-16.493-15.626-27.959-24.109-40.931-26.805a62.515 62.515 0 0 0-25.444 0c-18.281 3.8-33.572 19.09-64.155 49.673-30.582 30.583-45.873 45.874-49.673 64.154a62.52 62.52 0 0 0 0 25.445Z" clip-rule="evenodd"/><path fill="url(#c)" fill-rule="evenodd" d="M62.407 49.859c9.675-3.375 21.467-4.148 33.626 2.061 6.764 3.454 15.384 11.414 25.348 20.615 33.221 30.679 81.387 75.159 125.556 12.443-7.91-9.222-18.559-19.871-32.292-33.604C184.062 20.79 168.771 5.5 150.49 1.7a62.515 62.515 0 0 0-25.444 0C107.07 5.438 91.984 20.285 62.407 49.86Z" clip-rule="evenodd"/><path fill="#C4C4C4" fill-rule="evenodd" d="M62.433 206.63c9.67 3.367 21.452 4.133 33.6-2.071 6.765-3.454 15.384-11.413 25.348-20.615 33.243-30.699 81.452-75.218 125.645-12.316-7.907 9.215-18.549 19.856-32.267 33.575-30.583 30.582-45.874 45.873-64.155 49.673a62.523 62.523 0 0 1-25.444 0c-17.994-3.74-33.091-18.614-62.727-48.246Z" clip-rule="evenodd"/><path fill="url(#d)" fill-rule="evenodd" d="M62.433 206.63c9.67 3.367 21.452 4.133 33.6-2.071 6.765-3.454 15.384-11.413 25.348-20.615 33.243-30.699 81.452-75.218 125.645-12.316-7.907 9.215-18.549 19.856-32.267 33.575-30.583 30.582-45.874 45.873-64.155 49.673a62.523 62.523 0 0 1-25.444 0c-17.994-3.74-33.091-18.614-62.727-48.246Z" clip-rule="evenodd"/><path fill="url(#e)" fill-rule="evenodd" d="M62.433 206.63c9.67 3.367 21.452 4.133 33.6-2.071 6.765-3.454 15.384-11.413 25.348-20.615 33.243-30.699 81.452-75.218 125.645-12.316-7.907 9.215-18.549 19.856-32.267 33.575-30.583 30.582-45.874 45.873-64.155 49.673a62.523 62.523 0 0 1-25.444 0c-17.994-3.74-33.091-18.614-62.727-48.246Z" clip-rule="evenodd"/></g><defs><linearGradient id="b" x1="118" x2="29.36" y1="128" y2="166.658" gradientUnits="userSpaceOnUse"><stop stop-color="#4338CA"/><stop offset="1" stop-color="#A5B4FC"/></linearGradient><linearGradient id="c" x1="247.038" x2="80.572" y1="83.534" y2="40.174" gradientUnits="userSpaceOnUse"><stop stop-color="#4338CA"/><stop offset="1" stop-color="#A5B4FC"/></linearGradient><linearGradient id="d" x1="247.037" x2="98.669" y1="172.945" y2="205.077" gradientUnits="userSpaceOnUse"><stop stop-color="#4F46E5"/><stop offset="1" stop-color="#38BDF8"/></linearGradient><linearGradient id="e" x1="247.127" x2="80.594" y1="172.973" y2="216.33" gradientUnits="userSpaceOnUse"><stop stop-color="#4338CA"/><stop offset="1" stop-color="#A5B4FC"/></linearGradient><clipPath id="a"><path fill="#fff" d="M0 0h256v256H0z"/></clipPath></defs></svg>